<?xml version="1.0" standalone="no"?>
<!DOCTYPE svg PUBLIC "-//W3C//DTD SVG 20010904//EN"
 "http://www.w3.org/TR/2001/REC-SVG-20010904/DTD/svg10.dtd">
<svg version="1.0" xmlns="http://www.w3.org/2000/svg"
 width="280.000000pt" height="280.000000pt" viewBox="0 0 280.000000 280.000000"
 preserveAspectRatio="xMidYMid meet">
<metadata>
Created by potrace 1.15, written by Peter Selinger 2001-2017
</metadata>
<g transform="translate(0.000000,280.000000) scale(0.100000,-0.100000)"
fill="#000000" stroke="none">
<path d="M77 2173 c-4 -3 -7 -22 -7 -40 l0 -34 73 2 72 2 3 -118 c1 -65 -1
-122 -5 -126 -4 -5 -7 39 -5 97 2 71 -1 110 -9 120 -7 9 -31 14 -71 14 l-59 0
1 -187 c1 -104 -2 -265 -6 -360 -5 -134 -4 -176 6 -188 10 -12 38 -15 146 -15
l133 0 4 33 4 32 1 -32 c2 -33 3 -33 51 -33 l50 0 5 43 c4 23 7 69 9 102 l2
60 160 3 161 2 74 38 c61 30 80 46 104 85 27 44 30 58 33 149 2 69 -1 118 -12
153 -32 110 -119 179 -254 201 -39 6 -40 6 -43 -27 -3 -32 -5 -34 -41 -35
l-37 -1 35 4 c31 4 35 7 35 34 l0 29 -303 0 c-167 0 -307 -3 -310 -7z m549
-258 c10 -13 12 -30 8 -50 -13 -60 -19 -65 -89 -65 l-65 0 0 71 0 71 66 -4
c51 -3 70 -9 80 -23z"/>
<path d="M1106 2157 c-3 -12 -6 -201 -6 -420 l0 -397 165 0 c91 0 165 3 165 7
0 4 -10 18 -22 32 -14 16 -8 13 13 -6 l35 -33 202 0 202 0 0 80 0 79 -102 4
-103 3 103 2 102 2 0 45 0 45 -180 0 -180 0 0 35 0 35 180 0 180 0 0 95 0 95
-183 0 -183 0 5 43 6 42 183 3 182 2 0 115 0 115 -379 0 -379 0 -6 -23z"/>
<path d="M1980 2040 l0 -140 90 0 90 0 1 -87 c2 -104 2 -77 -6 -196 l-8 -99
72 4 c39 1 71 0 71 -4 0 -5 -31 -8 -70 -8 -80 0 -76 7 -64 -109 l7 -61 203 0
204 0 0 45 0 44 -57 4 -58 3 58 2 57 2 0 74 c0 69 -2 75 -22 79 l-23 4 23 2
c21 1 22 5 22 91 0 63 -4 90 -12 90 -9 0 -9 3 0 12 7 7 12 30 12 52 l0 39 -27
-24 c-28 -24 -28 -23 1 8 28 31 32 32 115 35 l86 3 0 135 0 135 -92 3 -92 3
-4 -33 -4 -33 -1 33 -2 32 -164 0 -165 0 -4 -47 -3 -48 -2 48 -2 47 -115 0
-115 0 0 -140z"/>
<path d="M1725 1101 c-24 -49 -58 -115 -75 -145 l-30 -56 39 0 c25 0 41 5 45
15 4 11 22 15 69 15 45 0 68 -5 77 -15 14 -17 70 -21 70 -5 0 16 -128 268
-139 275 -6 3 -31 -35 -56 -84z"/>
<path d="M2253 1068 c-93 -181 -89 -168 -48 -168 22 0 38 6 41 15 5 11 23 15
74 15 51 0 69 -4 74 -15 5 -15 76 -22 76 -7 -1 17 -137 266 -147 269 -7 3 -37
-44 -70 -109z"/>
<path d="M69 1151 c-22 -18 -24 -26 -24 -114 0 -126 9 -137 112 -137 87 0 107
8 122 51 16 46 15 49 -24 49 -24 0 -35 -5 -35 -14 0 -10 -16 -17 -45 -22 -64
-9 -77 4 -73 75 l3 56 58 3 c46 2 57 0 57 -13 0 -11 10 -15 35 -15 39 0 40 3
24 49 -15 42 -35 51 -117 51 -54 0 -75 -4 -93 -19z"/>
<path d="M340 1150 c-17 -17 -20 -33 -20 -115 0 -126 8 -135 119 -135 74 0 81
2 100 26 31 39 31 179 0 218 -19 24 -26 26 -100 26 -66 0 -82 -3 -99 -20z
m158 -116 l3 -61 -32 -7 c-70 -14 -99 3 -99 57 0 71 7 78 69 75 l56 -3 3 -61z"/>
<path d="M590 1035 l0 -135 30 0 30 0 0 72 0 72 31 -30 30 -29 30 34 29 34 0
-77 0 -76 30 0 30 0 0 135 0 135 -24 0 c-15 0 -37 -15 -61 -42 l-37 -43 -38
43 c-22 24 -47 42 -59 42 -20 0 -21 -4 -21 -135z"/>
<path d="M860 1035 l0 -135 30 0 c29 0 30 1 30 50 l0 50 73 0 c91 0 107 13
107 87 0 75 -14 83 -138 83 l-102 0 0 -135z"/>
<path d="M1130 1055 c0 -147 6 -155 122 -155 113 0 118 7 118 155 l0 115 -30
0 -30 0 0 -100 0 -99 -35 -7 c-19 -3 -46 -3 -60 0 -25 6 -25 8 -25 106 l0 100
-30 0 -30 0 0 -115z"/>
<path d="M1400 1135 c0 -35 0 -35 45 -35 l45 0 0 -100 0 -100 35 0 35 0 0 100
0 100 45 0 c45 0 45 0 45 35 l0 35 -125 0 -125 0 0 -35z"/>
<path d="M1950 1150 c-17 -17 -20 -33 -20 -115 0 -82 3 -98 20 -115 11 -11 25
-20 30 -20 6 0 10 -8 10 -18 0 -9 10 -23 21 -31 20 -12 24 -10 46 18 14 17 34
31 46 31 33 1 55 22 62 63 7 35 6 37 -19 37 -14 0 -36 -10 -47 -21 -17 -17
-29 -20 -62 -16 -22 3 -44 11 -48 19 -10 15 -12 79 -3 102 8 22 112 23 120 1
4 -9 19 -15 36 -15 29 0 30 2 24 32 -11 57 -30 68 -118 68 -65 0 -81 -3 -98
-20z"/>
<path d="M2491 1144 c-17 -22 -21 -41 -21 -109 0 -68 4 -87 21 -109 19 -24 26
-26 104 -26 77 0 86 2 99 23 34 53 31 187 -5 226 -17 18 -31 21 -99 21 -73 0
-80 -2 -99 -26z m159 -108 c0 -68 -6 -76 -56 -76 -50 0 -64 16 -64 74 0 29 3
56 7 59 3 4 30 7 60 7 l53 0 0 -64z"/>
</g>
</svg>
