<?xml version="1.0" standalone="no"?>
<!DOCTYPE svg PUBLIC "-//W3C//DTD SVG 20010904//EN"
 "http://www.w3.org/TR/2001/REC-SVG-20010904/DTD/svg10.dtd">
<svg version="1.0" xmlns="http://www.w3.org/2000/svg"
 width="5000.000000pt" height="2546.000000pt" viewBox="0 0 5000.000000 2546.000000"
 preserveAspectRatio="xMidYMid meet">
<metadata>
Created by potrace 1.15, written by Peter Selinger 2001-2017
</metadata>
<g transform="translate(0.000000,2546.000000) scale(0.100000,-0.100000)"
fill="#000000" stroke="none">
<path d="M730 8475 l0 -7755 12268 0 12267 0 7750 7752 7750 7753 -2299 3
c-1265 1 -2300 1 -2302 0 -1 -2 4 -43 12 -93 87 -577 99 -1317 29 -1875 -101
-807 -372 -1543 -787 -2140 -102 -146 -142 -196 -322 -410 -17 -19 -105 -110
-197 -201 -279 -278 -608 -525 -954 -719 -121 -68 -397 -210 -407 -210 -3 0
-44 -17 -90 -39 -512 -238 -1266 -435 -1998 -520 -443 -52 -491 -54 -1617 -58
l-1063 -4 0 -2295 0 -2294 -3545 0 -3544 0 -51 163 c-28 89 -58 180 -65 202
-8 22 -30 90 -49 150 -58 185 -414 1298 -476 1490 -39 122 -62 179 -71 178 -8
-1 -72 -19 -144 -41 -1158 -355 -2556 -429 -3815 -201 -311 56 -663 142 -918
224 -79 26 -145 45 -147 43 -1 -2 -32 -95 -69 -208 -77 -236 -459 -1397 -578
-1757 l-80 -243 -2173 0 -2174 0 25 68 c14 37 84 222 154 412 71 190 154 413
185 495 97 258 107 290 87 273 -9 -8 -48 -41 -87 -74 -193 -165 -533 -403
-785 -549 -758 -438 -1587 -705 -2540 -820 -545 -65 -1333 -73 -1975 -19
-1397 117 -2757 499 -4020 1131 -241 120 -505 265 -505 276 0 8 280 567 1177
2347 157 311 289 569 294 574 4 5 94 -40 211 -106 1151 -652 1968 -922 3023
-999 209 -15 832 -15 1010 0 585 50 942 180 1219 442 210 199 331 461 343 744
6 140 -13 240 -71 360 -114 239 -406 471 -840 668 -307 138 -840 330 -1291
464 -379 112 -1051 341 -1400 478 -1334 523 -2244 1102 -2829 1800 -192 229
-317 417 -446 670 -223 438 -344 884 -390 1438 -12 147 -16 669 -5 740 l7 47
-346 0 -346 0 0 -7755z"/>
<path d="M5445 16188 c51 -331 421 -672 1091 -1006 433 -217 830 -374 1459
-582 1006 -330 1325 -442 1690 -590 712 -288 1234 -568 1695 -908 828 -612
1325 -1376 1491 -2294 l12 -66 1029 2741 c565 1508 1028 2743 1028 2745 0 1
-2138 2 -4751 2 l-4751 0 7 -42z"/>
<path d="M22060 16225 c0 -2 4 -14 10 -27 9 -21 287 -778 490 -1333 48 -132
131 -359 184 -505 54 -146 113 -305 131 -355 19 -49 81 -218 138 -375 112
-306 460 -1253 584 -1590 41 -113 90 -245 108 -295 87 -237 192 -523 235 -640
27 -71 67 -182 90 -245 23 -63 73 -198 110 -300 158 -426 574 -1559 592 -1613
11 -32 21 -57 22 -55 0 2 0 1653 -2 3671 l-3 3667 -1345 0 c-739 0 -1344 -2
-1344 -5z"/>
<path d="M28770 14740 l0 -1490 503 0 c579 0 923 12 1157 40 1079 129 1697
610 1860 1445 53 271 54 618 4 894 -34 181 -109 390 -193 531 l-42 70 -1644 0
-1645 0 0 -1490z"/>
<path d="M18281 14913 c-221 -694 -223 -702 -369 -1163 -55 -173 -114 -358
-130 -410 -17 -52 -103 -324 -192 -605 -89 -280 -209 -658 -267 -840 -58 -181
-133 -420 -168 -530 -35 -110 -91 -287 -125 -394 -48 -153 -59 -196 -48 -202
7 -5 69 -27 138 -48 481 -154 867 -214 1380 -214 489 0 903 64 1346 207 l141
46 -39 127 c-22 71 -50 162 -63 203 -13 41 -82 266 -155 500 -73 234 -140 452
-150 485 -10 33 -53 170 -95 305 -42 135 -132 425 -200 645 -147 476 -219 709
-245 790 -10 33 -78 251 -150 485 -279 901 -352 1137 -369 1189 -9 30 -21 56
-27 58 -6 2 -97 -271 -213 -634z"/>
<path d="M32155 3825 c-309 -49 -584 -178 -822 -384 -238 -206 -411 -504 -485
-832 -20 -92 -23 -129 -23 -329 1 -211 2 -233 29 -344 95 -404 320 -730 660
-958 168 -112 360 -190 587 -240 88 -19 134 -22 304 -22 170 0 216 3 304 22
219 48 388 116 556 227 106 69 144 100 243 198 230 226 377 511 438 850 21
113 24 397 5 512 -90 568 -455 1018 -990 1221 -86 33 -206 63 -316 80 -111 17
-381 16 -490 -1z m505 -270 c489 -108 853 -479 965 -985 25 -113 31 -372 12
-495 -45 -279 -162 -524 -340 -707 -452 -465 -1180 -505 -1694 -93 -337 270
-517 724 -462 1165 62 504 384 908 854 1071 69 23 132 38 265 63 54 10 327 -3
400 -19z"/>
<path d="M31800 2290 l0 -900 140 0 140 0 0 385 0 385 145 0 145 0 50 -77 c27
-43 136 -216 242 -385 l193 -308 158 0 c86 0 157 3 157 6 0 3 -115 176 -256
385 -141 209 -254 381 -252 383 1 1 30 7 63 14 95 19 215 83 273 147 88 96
122 196 122 358 0 255 -118 410 -359 472 -93 24 -286 34 -643 35 l-318 0 0
-900z m847 626 c67 -21 131 -70 156 -120 16 -30 20 -57 20 -118 -2 -143 -65
-226 -200 -264 -43 -12 -118 -18 -300 -21 l-243 -5 0 277 0 277 258 -4 c204
-4 268 -8 309 -22z"/>
</g>
</svg>
