<?xml version="1.0" standalone="no"?>
<!DOCTYPE svg PUBLIC "-//W3C//DTD SVG 20010904//EN"
 "http://www.w3.org/TR/2001/REC-SVG-20010904/DTD/svg10.dtd">
<svg version="1.0" xmlns="http://www.w3.org/2000/svg"
 width="225.000000pt" height="225.000000pt" viewBox="0 0 225.000000 225.000000"
 preserveAspectRatio="xMidYMid meet">
<metadata>
Created by potrace 1.15, written by Peter Selinger 2001-2017
</metadata>
<g transform="translate(0.000000,225.000000) scale(0.100000,-0.100000)"
fill="#000000" stroke="none">
<path d="M1015 2199 c-356 -39 -672 -266 -826 -594 -71 -151 -83 -215 -83
-420 0 -167 2 -187 28 -270 116 -382 405 -645 801 -729 104 -23 335 -16 441
12 386 103 672 396 760 777 25 107 25 299 0 415 -73 346 -318 626 -659 755
-125 47 -320 70 -462 54z m70 -54 c28 -27 29 -33 15 -69 -19 -51 -121 -50
-140 0 -28 72 70 125 125 69z m120 -140 c198 -23 375 -112 512 -259 79 -84
134 -177 174 -296 28 -83 33 -111 35 -215 6 -239 -62 -417 -225 -588 -158
-165 -350 -246 -586 -247 -280 0 -519 126 -669 354 -95 144 -136 279 -136 451
0 230 86 424 258 587 119 112 270 182 449 208 56 8 84 17 88 27 5 14 7 14 23
0 9 -8 44 -18 77 -22z m846 -504 c35 -35 37 -66 7 -98 -28 -30 -63 -29 -93 2
-34 33 -33 77 1 104 36 28 50 26 85 -8z m-298 -969 c24 -21 21 -64 -7 -91 -34
-32 -97 -27 -110 10 -14 41 0 78 36 94 34 14 53 11 81 -13z m-551 -199 c10 -9
18 -30 18 -49 0 -42 -30 -64 -87 -64 l-43 0 0 65 0 65 47 0 c29 0 53 -6 65
-17z"/>
</g>
</svg>
