<?xml version="1.0" standalone="no"?>
<!DOCTYPE svg PUBLIC "-//W3C//DTD SVG 20010904//EN"
 "http://www.w3.org/TR/2001/REC-SVG-20010904/DTD/svg10.dtd">
<svg version="1.0" xmlns="http://www.w3.org/2000/svg"
 width="300.000000pt" height="232.000000pt" viewBox="0 0 300.000000 232.000000"
 preserveAspectRatio="xMidYMid meet">
<metadata>
Created by potrace 1.15, written by Peter Selinger 2001-2017
</metadata>
<g transform="translate(0.000000,232.000000) scale(0.100000,-0.100000)"
fill="#000000" stroke="none">
<path d="M1292 2294 c-60 -30 -126 -100 -155 -163 -40 -89 -8 -244 64 -309 19
-16 56 -50 83 -74 54 -47 77 -90 75 -140 -1 -31 -2 -30 -10 10 -12 63 -42 98
-113 132 -35 16 -68 30 -74 30 -6 0 -22 14 -36 30 -31 37 -42 105 -29 177 11
61 5 65 -43 28 -73 -56 -99 -182 -54 -262 38 -69 101 -105 203 -117 45 -6 66
-15 94 -39 42 -37 64 -42 102 -23 69 36 118 128 105 197 -8 40 -49 124 -65
134 -6 4 -24 28 -40 53 -66 104 -18 251 100 308 74 35 42 54 -88 54 -52 0 -79
-6 -119 -26z"/>
<path d="M1554 2121 c-70 -32 -110 -105 -94 -174 4 -19 24 -62 45 -96 34 -55
37 -66 33 -115 -5 -63 -33 -111 -87 -147 -20 -13 -39 -27 -42 -32 -3 -4 -121
-7 -262 -5 -156 2 -256 -1 -254 -6 5 -15 191 -74 287 -92 112 -21 311 -21 415
1 104 22 278 78 273 88 -1 5 -95 8 -208 8 -195 0 -202 1 -153 14 126 34 203
130 203 252 0 53 -19 93 -71 150 -32 35 -39 50 -39 83 0 35 4 43 30 58 16 9
30 20 30 25 0 14 -65 7 -106 -12z"/>
<path d="M2014 1331 c-104 -26 -188 -101 -225 -200 -29 -78 -24 -194 13 -266
31 -60 86 -114 148 -146 39 -21 59 -24 150 -24 94 0 110 3 155 27 113 60 168
146 173 276 l4 82 -176 0 -176 0 0 -80 0 -80 45 0 c52 0 59 -13 15 -28 -66
-23 -124 19 -131 93 -5 70 1 97 30 126 37 37 87 39 128 5 l28 -23 97 36 c54
20 98 41 98 47 0 24 -84 104 -136 130 -43 21 -74 28 -133 30 -42 2 -90 0 -107
-5z"/>
<path d="M2662 1322 c-96 -35 -151 -111 -152 -210 0 -105 51 -153 203 -186 18
-4 27 -13 27 -26 0 -32 -72 -27 -139 10 -30 17 -55 29 -56 28 -1 -2 -18 -43
-38 -91 l-37 -88 67 -32 c79 -36 202 -48 279 -27 110 31 181 129 172 236 -8
90 -60 141 -167 164 -66 14 -95 35 -70 51 24 15 64 10 114 -16 27 -13 50 -23
50 -22 10 15 67 169 64 172 -2 2 -29 13 -59 25 -78 31 -190 36 -258 12z"/>
<path d="M0 1105 c0 -249 4 -272 63 -333 60 -63 99 -77 217 -77 92 0 111 3
154 25 27 14 62 41 78 60 49 60 58 111 58 342 l0 208 -115 0 -115 0 -1 -182
c-2 -221 -5 -239 -43 -253 -24 -8 -31 -6 -47 14 -17 21 -19 42 -19 222 l0 199
-115 0 -115 0 0 -225z"/>
<path d="M660 1015 l0 -315 120 0 120 0 0 110 0 110 85 0 85 0 0 85 0 85 -85
0 -85 0 0 30 0 30 95 0 96 0 -3 88 -3 87 -212 3 -213 2 0 -315z"/>
<path d="M1160 1016 l0 -316 115 0 115 0 0 88 1 87 45 -87 46 -88 129 0 c71 0
129 2 129 5 0 3 -36 59 -79 125 -77 116 -79 121 -58 129 54 21 87 81 87 159 0
88 -30 139 -105 177 -58 30 -61 30 -242 33 l-183 4 0 -316z"/>
<path d="M967 440 c-26 -21 -29 -21 -46 -6 -12 11 -36 16 -74 16 l-57 0 0
-100 0 -100 30 0 c26 0 30 4 30 26 l0 27 20 -26 c18 -23 27 -25 96 -25 86 -1
114 16 114 67 0 30 -15 47 -59 69 l-26 12 32 -5 c26 -3 33 0 38 16 14 44 -54
63 -98 29z"/>
<path d="M0 366 c0 -76 2 -86 22 -100 33 -23 103 -21 128 4 17 17 20 33 20
100 l0 80 -30 0 c-29 0 -29 0 -32 -67 -3 -62 -5 -68 -25 -71 -22 -3 -23 0 -23
67 l0 71 -30 0 -30 0 0 -84z"/>
<path d="M190 350 l0 -100 30 0 c29 0 30 1 30 52 l0 51 32 -44 c37 -52 46 -59
76 -59 21 0 22 3 22 100 l0 100 -29 0 c-28 0 -30 -2 -33 -46 l-3 -47 -33 47
c-27 37 -39 46 -63 46 l-29 0 0 -100z"/>
<path d="M400 350 l0 -100 30 0 29 0 3 86 3 85 35 -83 c30 -72 38 -83 59 -83
21 0 29 11 55 74 l31 75 5 -75 5 -74 63 -3 62 -3 0 31 c0 28 -3 30 -36 30 -21
0 -33 4 -29 10 3 6 19 10 36 10 24 0 29 4 29 25 0 21 -5 25 -29 25 -17 0 -33
5 -36 10 -4 6 8 10 29 10 32 0 36 3 36 25 0 25 0 25 -94 25 -91 0 -94 -1 -100
-25 -3 -13 -11 -37 -17 -52 l-11 -28 -17 50 -17 50 -62 3 -62 3 0 -101z"/>
<path d="M1170 349 l0 -102 62 6 c55 5 67 10 92 39 18 20 27 25 22 13 -21 -51
-20 -55 14 -55 23 0 33 5 37 20 8 29 63 28 70 -1 6 -20 11 -21 96 -17 87 4 91
5 120 38 25 28 29 38 24 74 -8 61 -42 86 -118 86 l-59 0 -1 -82 -1 -83 -27 80
-28 80 -39 3 -40 3 -21 -63 c-19 -55 -21 -59 -22 -30 -1 23 -10 43 -30 63 -26
26 -36 29 -90 29 l-61 0 0 -101z"/>
<path d="M1720 350 l0 -100 60 0 60 0 0 30 c0 27 -3 30 -30 30 -16 0 -30 5
-30 10 0 6 14 10 30 10 25 0 30 4 30 25 0 21 -5 25 -30 25 -16 0 -30 5 -30 10
0 6 14 10 30 10 25 0 30 4 30 25 0 24 -3 25 -60 25 l-60 0 0 -100z"/>
<path d="M1932 353 l3 -98 30 0 c27 0 30 3 33 38 3 33 6 37 32 37 26 0 29 -4
32 -37 l3 -38 63 -3 62 -3 0 31 c0 27 -3 30 -30 30 -16 0 -30 5 -30 10 0 6 14
10 30 10 25 0 30 4 30 25 0 21 -5 25 -30 25 -16 0 -30 5 -30 10 0 6 14 10 30
10 25 0 30 4 30 25 0 24 -3 25 -59 25 -54 0 -60 -2 -64 -22 l-4 -23 -2 23 c-1
20 -6 22 -66 22 l-66 0 3 -97z"/>
<path d="M2200 350 l0 -100 38 0 c94 0 142 36 142 105 0 27 -8 44 -29 66 -26
26 -36 29 -90 29 l-61 0 0 -100z"/>
<path d="M2390 350 l0 -101 63 3 c59 3 62 4 62 28 0 21 -5 26 -32 28 -41 4
-43 22 -3 22 25 0 30 4 30 25 0 21 -5 25 -30 25 -16 0 -30 5 -30 10 0 6 16 10
35 10 34 0 35 -1 35 -37 0 -21 3 -55 6 -75 6 -34 10 -38 35 -38 23 0 29 5 30
23 l0 22 16 -22 c12 -19 25 -23 65 -23 41 0 51 3 55 20 7 27 58 27 73 0 9 -18
21 -20 95 -20 l85 0 0 30 c0 27 -3 30 -30 30 l-30 0 0 70 0 70 -30 0 -30 0 -1
-82 0 -83 -31 83 -31 82 -37 0 -37 0 -27 -80 c-25 -71 -30 -78 -41 -63 -11 15
-10 21 6 42 43 54 9 101 -75 101 -49 0 -55 -2 -59 -22 l-4 -23 -2 23 c-1 20
-6 22 -66 22 l-65 0 0 -100z"/>
<path d="M0 101 l0 -101 56 0 c50 0 59 3 90 34 19 19 34 28 34 21 0 -26 51
-55 97 -55 102 0 140 117 59 182 -32 27 -97 23 -130 -7 -14 -13 -26 -29 -26
-35 0 -6 -13 4 -29 22 -24 27 -36 32 -90 36 l-61 4 0 -101z"/>
<path d="M460 100 l0 -100 30 0 c26 0 30 4 30 28 l1 27 17 -27 c15 -26 22 -28
79 -28 l63 0 0 38 1 37 15 -27 c19 -36 43 -48 94 -48 91 0 135 106 71 171 -47
47 -129 37 -164 -19 l-16 -27 -1 38 c0 36 -1 37 -35 37 -25 0 -35 -4 -35 -16
0 -14 -2 -14 -22 0 -14 10 -44 16 -75 16 l-53 0 0 -100z"/>
<path d="M999 171 c-23 -23 -29 -38 -29 -71 0 -61 41 -100 105 -100 59 0 95
32 95 85 l0 35 -55 0 c-52 0 -55 -1 -55 -25 0 -20 5 -25 27 -25 19 0 24 -3 16
-11 -15 -15 -54 -8 -66 12 -13 21 -2 65 19 73 8 3 24 1 35 -4 23 -13 69 -3 69
15 0 22 -47 45 -90 45 -33 0 -48 -6 -71 -29z"/>
<path d="M1180 100 l0 -100 30 0 c24 0 30 4 30 22 l0 22 16 -22 c12 -18 25
-22 65 -22 37 0 49 4 49 15 0 10 11 15 35 15 24 0 35 -5 35 -15 0 -12 13 -15
59 -15 l60 0 3 46 3 47 33 -47 c27 -37 39 -46 63 -46 l29 0 0 100 0 100 -30 0
c-29 0 -30 -1 -30 -52 l0 -52 -37 52 c-30 40 -44 51 -65 52 l-28 0 0 -82 -1
-83 -28 80 -28 80 -38 0 -38 0 -26 -78 c-23 -67 -28 -75 -38 -59 -9 16 -8 22
8 35 50 43 1 107 -82 107 l-49 0 0 -100z"/>
<path d="M1700 100 l0 -100 53 0 c61 0 97 16 114 50 12 24 13 24 13 -12 l0
-38 66 0 65 0 -3 28 c-2 22 -9 28 -38 33 l-35 6 33 2 c28 1 32 4 32 30 0 26
-4 30 -32 34 -32 4 -32 4 5 5 34 2 37 4 37 32 l0 30 -65 0 -65 0 -1 -37 c0
-32 -2 -35 -9 -16 -13 32 -61 53 -120 53 l-50 0 0 -100z"/>
<path d="M2090 101 l0 -101 61 0 c54 0 64 3 90 29 l29 29 29 -29 c51 -50 137
-36 170 28 20 39 13 73 -23 109 -46 46 -104 48 -147 4 l-30 -30 -23 27 c-20
23 -33 27 -90 31 l-66 4 0 -101z"/>
<path d="M2570 173 c-11 -14 -20 -30 -20 -35 0 -22 22 -47 50 -56 16 -6 30
-16 30 -21 0 -15 -23 -14 -38 1 -8 8 -15 8 -27 -2 -35 -29 -4 -60 59 -60 25 0
40 7 53 23 l18 24 18 -24 c15 -18 28 -23 68 -23 74 0 89 20 89 120 l0 80 -30
0 -30 0 0 -62 c0 -70 -10 -94 -34 -85 -13 5 -16 21 -16 76 l0 69 -85 1 c-79 0
-86 -2 -105 -26z"/>
<path d="M2880 100 l0 -100 60 0 60 0 0 30 c0 27 -3 30 -30 30 l-30 0 0 70 0
70 -30 0 -30 0 0 -100z"/>
</g>
</svg>
