<?xml version="1.0" standalone="no"?>
<!DOCTYPE svg PUBLIC "-//W3C//DTD SVG 20010904//EN"
 "http://www.w3.org/TR/2001/REC-SVG-20010904/DTD/svg10.dtd">
<svg version="1.0" xmlns="http://www.w3.org/2000/svg"
 width="1200.000000pt" height="1200.000000pt" viewBox="0 0 1200.000000 1200.000000"
 preserveAspectRatio="xMidYMid meet">
<metadata>
Created by potrace 1.15, written by Peter Selinger 2001-2017
</metadata>
<g transform="translate(0.000000,1200.000000) scale(0.100000,-0.100000)"
fill="#000000" stroke="none">
<path d="M5920 11953 c-120 -89 -352 -255 -365 -260 -8 -2 -122 50 -256 117
l-242 122 -196 -196 -196 -196 -40 15 c-74 27 -487 157 -489 153 -3 -3 -41
-55 -156 -213 -20 -27 -66 -89 -101 -137 -51 -71 -68 -88 -89 -88 -14 1 -137
18 -275 40 -137 21 -251 35 -253 32 -1 -4 -58 -115 -125 -247 l-122 -240 -276
-3 -277 -2 -81 -249 c-45 -137 -81 -254 -81 -260 0 -13 5 -12 -294 -60 -136
-22 -251 -42 -254 -45 -3 -3 -22 -113 -43 -243 -21 -131 -41 -252 -44 -268 -5
-30 -7 -31 -265 -115 l-259 -85 -1 -277 0 -277 -250 -127 c-188 -96 -249 -132
-246 -143 3 -9 21 -122 41 -251 20 -129 38 -245 40 -256 5 -22 -3 -29 -352
-284 -46 -33 -83 -67 -83 -75 0 -11 110 -358 153 -483 l11 -33 -193 -193
c-175 -175 -193 -196 -185 -217 5 -13 59 -121 119 -239 61 -118 111 -221 113
-228 3 -10 -111 -177 -265 -386 -24 -32 -43 -64 -43 -70 0 -7 21 -41 47 -76
27 -36 98 -134 159 -219 l110 -154 -124 -244 -123 -243 193 -201 c106 -110
191 -206 190 -212 -2 -7 -40 -124 -83 -261 -44 -137 -76 -252 -71 -255 4 -3
103 -76 220 -161 180 -131 212 -158 212 -180 0 -14 -18 -137 -40 -275 -21
-137 -38 -250 -37 -251 1 -1 111 -56 245 -123 223 -113 242 -125 243 -149 1
-15 2 -40 4 -57 1 -16 3 -130 4 -252 l1 -222 256 -83 c201 -65 258 -87 265
-103 5 -11 27 -132 48 -269 22 -136 42 -251 46 -254 3 -3 126 -25 273 -49 171
-28 269 -47 271 -55 3 -7 42 -125 87 -263 l83 -250 278 -3 278 -3 124 -244
c94 -185 128 -244 140 -241 9 3 122 21 251 41 129 19 245 38 257 40 18 4 45
-28 184 -218 89 -122 163 -223 163 -224 1 -1 120 37 265 84 l263 86 192 -192
c105 -105 195 -191 200 -191 6 0 118 55 251 122 l242 122 211 -152 c144 -104
219 -152 237 -152 16 0 57 22 108 60 45 33 140 101 211 152 l129 93 247 -125
247 -124 192 189 c105 105 197 191 205 193 7 2 127 -34 266 -79 215 -69 255
-79 264 -66 6 8 78 107 161 221 97 134 155 206 167 206 17 0 443 -64 503 -75
l30 -6 124 244 123 245 279 7 279 7 81 252 c45 138 85 255 90 260 5 5 126 29
270 52 144 24 265 46 269 51 4 4 22 100 39 213 17 113 36 232 42 266 l10 60
259 85 c214 69 259 87 262 104 2 11 5 135 7 275 1 140 5 258 7 262 3 4 69 39
147 79 124 63 329 169 334 173 0 0 -18 123 -42 271 -24 149 -40 273 -36 276 3
4 103 77 221 164 118 87 214 163 214 169 -1 6 -39 125 -84 265 l-83 253 192
192 c105 105 191 196 191 201 0 6 -55 118 -122 250 l-122 241 119 164 c65 91
133 186 152 211 18 26 33 59 33 73 0 25 -65 121 -252 373 -21 29 -41 59 -44
67 -3 7 49 123 116 256 l121 242 -78 81 c-43 45 -130 133 -194 197 l-116 116
22 69 c154 477 148 455 128 471 -10 8 -43 32 -73 54 -30 22 -78 57 -107 77
-28 21 -94 69 -147 107 -58 42 -96 76 -96 86 0 10 18 134 40 275 22 142 39
259 38 260 -2 1 -112 57 -245 125 l-243 123 -1 156 c-1 86 -2 163 -3 171 -2 8
-3 63 -4 122 l-2 106 -252 82 c-139 45 -257 86 -262 90 -5 5 -28 127 -52 271
-41 251 -49 278 -80 279 -10 0 -412 63 -480 75 -30 5 -31 6 -115 265 l-84 260
-277 0 -276 0 -95 188 c-170 333 -155 309 -191 304 -17 -3 -139 -22 -271 -42
l-240 -38 -21 26 c-12 15 -79 106 -149 202 -69 96 -135 184 -145 194 -22 23
-12 25 -319 -74 l-223 -72 -192 191 c-105 105 -195 191 -199 191 -5 0 -118
-55 -251 -122 l-243 -122 -213 153 c-117 85 -220 155 -229 158 -9 2 -45 -17
-81 -44z m550 -713 c1130 -111 2103 -524 2970 -1258 150 -127 399 -374 538
-536 485 -558 854 -1223 1064 -1916 459 -1516 220 -3139 -655 -4450 -509 -762
-1195 -1371 -2012 -1785 -598 -302 -1193 -474 -1905 -547 -166 -17 -764 -17
-930 0 -332 34 -625 87 -905 163 -1112 301 -2077 947 -2800 1874 -113 145
-314 446 -410 615 -608 1074 -819 2318 -599 3540 83 461 246 951 460 1385 533
1082 1449 1968 2548 2465 578 261 1194 416 1826 459 162 11 663 6 810 -9z"/>
<path d="M5640 11189 c-1132 -78 -2217 -535 -3080 -1295 -148 -131 -419 -408
-541 -554 -651 -781 -1051 -1695 -1179 -2695 -58 -459 -51 -984 20 -1445 149
-964 563 -1858 1204 -2601 148 -172 436 -458 596 -590 864 -719 1875 -1128
2985 -1209 180 -13 540 -13 720 0 1144 83 2210 528 3068 1280 1305 1143 1953
2847 1737 4570 -117 939 -496 1837 -1088 2579 -295 370 -660 719 -1027 982
-812 583 -1712 909 -2707 979 -170 12 -526 11 -708 -1z m1043 -374 c91 -16
134 -38 161 -84 23 -40 25 -122 6 -216 -10 -49 -20 -67 -55 -101 l-42 -41 23
-26 c34 -40 38 -84 20 -211 -9 -63 -14 -126 -10 -140 6 -26 6 -26 -42 -20 -27
4 -53 10 -58 15 -12 11 -11 68 4 176 7 50 10 103 6 117 -8 31 -48 54 -101 58
l-39 3 -24 -165 c-13 -91 -24 -165 -25 -166 -4 -4 -97 13 -102 18 -4 4 97 723
110 786 6 25 1 25 168 -3z m-1243 -4 c0 -10 3 -32 6 -48 l6 -30 -116 -18
c-134 -22 -124 -5 -100 -162 l17 -105 46 6 c25 4 69 10 97 13 l51 5 7 -41 c3
-23 4 -46 2 -50 -3 -4 -46 -14 -96 -21 -49 -7 -90 -16 -90 -19 1 -23 40 -244
44 -248 3 -3 55 2 116 12 62 9 113 15 115 13 2 -1 6 -24 10 -49 l7 -46 -167
-27 c-92 -15 -170 -24 -173 -21 -7 6 -133 798 -128 802 4 4 296 51 324 52 15
1 22 -5 22 -18z m-1260 -741 c55 -190 104 -360 109 -378 l10 -32 -67 -34 -67
-34 -252 332 -253 331 51 25 c33 16 52 21 57 14 32 -48 376 -493 379 -490 2 2
-34 137 -81 299 -47 163 -86 299 -86 304 0 5 19 18 43 30 l42 20 8 -21 c5 -11
53 -176 107 -366z m3915 321 c70 -32 115 -96 115 -161 0 -27 -37 -140 -45
-140 -3 0 -24 10 -49 21 l-44 22 14 33 c28 66 14 115 -36 133 -42 14 -72 1
-100 -44 -32 -52 -25 -125 24 -235 67 -150 59 -253 -27 -347 -59 -64 -129 -76
-212 -35 -103 50 -133 149 -81 267 l25 55 46 -22 c33 -16 44 -26 39 -38 -45
-104 -43 -141 10 -167 73 -34 131 20 131 122 -1 48 -9 79 -43 156 -35 81 -42
107 -42 160 0 71 20 124 65 178 52 61 133 78 210 42z m1082 -733 c18 -18 33
-36 33 -40 0 -8 -432 -499 -510 -581 l-27 -29 -37 33 c-20 17 -35 38 -32 45 6
15 528 604 535 604 3 0 20 -14 38 -32z m-2747 -13 c1662 -200 2977 -1482 3214
-3135 39 -270 46 -654 16 -910 -83 -714 -348 -1350 -799 -1915 -122 -154 -392
-424 -546 -546 -436 -348 -913 -585 -1435 -713 -270 -66 -480 -94 -770 -103
-1172 -36 -2295 497 -3015 1432 -410 532 -658 1143 -742 1825 -24 201 -24 628
0 830 102 842 463 1585 1057 2180 637 639 1431 999 2365 1074 108 8 526 -4
655 -19z m-3340 -313 c148 -161 270 -296 269 -300 0 -4 -18 -22 -38 -39 l-38
-33 -278 302 -277 301 38 33 c22 18 42 32 46 31 4 -1 129 -134 278 -295z
m6915 -633 c50 -78 98 -154 108 -169 l17 -27 -40 -27 c-22 -14 -41 -26 -43
-26 -2 0 -21 27 -41 60 -21 33 -39 60 -41 60 -2 0 -137 -85 -299 -190 -163
-104 -300 -190 -304 -190 -12 0 -54 78 -48 89 3 5 131 89 283 186 153 98 284
184 292 191 12 11 9 21 -22 68 -20 31 -37 58 -37 60 0 6 72 56 80 56 3 0 46
-64 95 -141z m-7625 -169 c184 -112 339 -206 343 -210 5 -4 -4 -27 -19 -51
-16 -24 -29 -45 -29 -46 -1 -3 -563 135 -585 143 -32 11 12 -17 230 -149 124
-75 232 -141 239 -146 13 -8 12 -15 -5 -46 -10 -20 -23 -39 -27 -42 -4 -2 -51
22 -105 55 -53 33 -203 124 -332 202 -129 79 -241 148 -249 155 -11 11 -9 21
14 60 16 26 33 49 40 51 7 3 124 -22 260 -55 137 -34 249 -60 251 -58 2 1 -92
61 -209 131 -117 71 -213 130 -215 132 -7 5 49 85 56 81 4 -3 158 -96 342
-207z m8226 -1160 c24 -85 44 -160 44 -165 0 -10 -90 -40 -94 -33 -1 2 -15 50
-31 108 -15 58 -31 108 -34 112 -6 7 -224 -52 -235 -63 -3 -3 5 -43 19 -90 13
-46 25 -87 25 -90 0 -5 -77 -29 -93 -29 -2 0 -15 39 -27 86 -13 47 -29 88 -35
90 -10 4 -234 -52 -243 -61 -2 -2 10 -53 27 -114 17 -61 31 -112 31 -115 0 -5
-91 -28 -95 -24 -4 4 -83 288 -87 312 -3 18 35 31 377 127 209 59 386 107 394
106 9 -1 29 -55 57 -157z m-8876 -55 c304 -73 368 -94 402 -132 32 -35 50 -94
44 -137 -10 -62 -44 -123 -80 -146 -67 -41 -96 -38 -446 46 -179 42 -326 78
-328 79 -3 2 18 97 23 103 1 1 142 -32 314 -73 172 -41 324 -75 339 -75 66 0
99 97 47 138 -17 13 -122 43 -303 87 -152 37 -294 71 -316 77 -38 9 -38 10
-32 50 7 41 13 58 22 58 2 0 144 -34 314 -75z m-78 -1244 c22 -25 28 -41 28
-77 0 -39 -5 -51 -34 -80 -39 -39 -86 -45 -137 -18 -29 15 -59 65 -59 100 0
30 32 85 59 100 43 24 110 12 143 -25z m8870 13 c35 -32 51 -80 38 -120 -34
-102 -169 -114 -215 -18 -39 82 23 170 113 161 24 -3 52 -13 64 -23z m-408
-960 c82 -21 131 -50 152 -89 l17 -33 27 20 c44 32 94 33 218 3 62 -15 124
-25 138 -22 27 5 28 2 13 -58 -6 -24 -18 -46 -27 -50 -9 -3 -71 6 -137 21 -73
16 -132 24 -148 20 -33 -8 -57 -43 -64 -94 l-5 -38 162 -38 162 -38 -7 -37
c-11 -62 -16 -72 -33 -67 -9 3 -188 46 -397 96 -209 50 -381 93 -382 94 -7 7
60 234 77 261 39 63 116 80 234 49z m-7960 -108 c10 -36 15 -69 12 -74 -3 -6
-120 -70 -260 -143 -140 -73 -254 -135 -252 -136 2 -2 133 8 291 21 159 14
292 23 295 21 10 -6 43 -126 36 -132 -3 -3 -33 -13 -68 -23 -35 -10 -198 -57
-363 -105 -165 -49 -312 -90 -326 -92 -22 -4 -27 0 -37 35 -7 22 -12 44 -12
49 0 5 109 41 242 79 132 38 234 70 225 72 -10 2 -123 -6 -254 -18 -130 -11
-239 -17 -243 -13 -13 13 -32 84 -26 91 4 3 111 61 239 129 127 67 228 123
223 123 -4 0 -116 -31 -247 -70 -132 -38 -243 -70 -248 -70 -11 0 -32 83 -23
91 4 3 122 39 262 79 140 40 311 90 380 111 69 20 128 37 131 38 3 0 14 -28
23 -63z m7441 -873 c19 -9 35 -21 35 -27 0 -6 -24 -55 -54 -108 -53 -97 -54
-97 -32 -111 43 -28 197 -109 200 -106 2 2 22 39 46 82 24 42 48 77 53 77 12
0 77 -40 77 -47 0 -3 -21 -42 -46 -86 -25 -45 -42 -83 -37 -84 4 -2 55 -30
113 -63 121 -68 105 -73 176 58 25 45 50 82 54 82 17 0 80 -34 80 -43 0 -10
-147 -277 -160 -291 -5 -4 -169 80 -364 189 l-357 197 29 52 c16 28 53 95 82
149 29 53 57 97 61 97 5 0 24 -8 44 -17z m-6986 -278 c43 -22 97 -90 111 -141
16 -56 2 -109 -40 -158 -30 -33 -414 -287 -465 -306 -50 -19 -127 -12 -167 15
-45 30 -85 95 -94 152 -8 54 22 121 74 161 57 45 382 253 427 273 49 22 116
24 154 4z m6655 -850 l294 -269 -31 -36 c-17 -19 -36 -35 -42 -35 -11 0 -534
473 -579 523 -18 21 -18 22 10 56 16 19 34 34 41 33 6 -1 144 -123 307 -272z
m-5970 35 l44 -41 -108 -244 c-60 -135 -107 -245 -105 -245 2 0 78 85 170 190
l167 189 34 -27 c19 -15 33 -33 32 -39 -2 -7 -122 -147 -267 -312 l-264 -299
-44 35 c-23 19 -41 38 -39 42 4 7 196 438 228 511 23 55 37 68 -177 -175 -87
-99 -166 -189 -177 -200 -18 -19 -18 -19 -53 16 l-35 35 266 302 c147 166 271
302 276 302 5 0 28 -18 52 -40z m5096 -720 c106 -157 195 -287 197 -289 2 -3
45 24 95 59 l92 63 28 -33 c15 -19 28 -39 28 -45 -1 -8 -272 -198 -276 -192
-71 101 -454 670 -454 675 0 12 84 62 91 54 3 -4 93 -135 199 -292z m-4116 45
c97 -46 176 -89 176 -94 0 -17 -33 -81 -42 -81 -5 0 -35 14 -68 30 l-60 30
-49 -102 c-148 -312 -262 -538 -271 -538 -6 0 -28 9 -50 20 -35 18 -38 23 -31
43 5 12 75 156 155 321 81 164 145 300 144 301 -2 2 -31 17 -65 34 l-63 31 22
45 c12 25 23 45 24 45 0 0 81 -38 178 -85z m3121 -530 c65 -184 121 -335 125
-335 4 0 52 16 105 35 54 20 101 32 105 28 10 -10 33 -83 28 -87 -7 -6 -296
-106 -306 -106 -11 0 -275 746 -270 762 4 11 60 36 84 37 6 1 64 -150 129
-334z m-2162 205 c185 -36 222 -99 181 -306 -22 -110 -47 -153 -108 -183 -45
-23 -53 -24 -119 -13 -40 6 -73 9 -75 8 -1 -2 -15 -70 -31 -152 l-28 -149 -29
3 c-51 4 -74 12 -74 25 0 14 139 766 145 784 2 6 12 10 22 7 10 -2 62 -13 116
-24z m1265 -102 l3 -46 -78 -6 c-43 -4 -96 -9 -118 -12 l-40 -5 7 -82 c3 -45
7 -101 7 -125 l1 -42 100 6 100 7 0 -51 0 -52 -42 0 c-24 0 -67 -3 -96 -7
l-53 -6 5 -46 c3 -25 8 -83 12 -129 l6 -84 119 7 c115 7 119 7 119 -12 0 -11
3 -34 6 -50 l6 -30 -172 -13 c-94 -7 -173 -10 -176 -8 -4 5 -64 735 -64 789
l0 26 133 10 c72 6 150 10 172 9 l40 -1 3 -47z"/>
<path d="M6610 10714 c0 -5 -9 -65 -19 -134 -10 -69 -17 -126 -16 -128 2 -2
28 -6 58 -9 78 -8 100 15 115 120 13 84 6 119 -27 137 -27 14 -111 25 -111 14z"/>
<path d="M5705 9599 c-1641 -140 -2996 -1385 -3264 -2999 -63 -382 -67 -771
-11 -1143 219 -1442 1290 -2621 2700 -2970 281 -70 477 -96 786 -104 1009 -27
1951 355 2667 1080 666 674 1037 1579 1037 2532 0 807 -265 1581 -758 2213
-697 895 -1752 1408 -2877 1401 -99 -1 -225 -6 -280 -10z m320 -1178 c7 -974
6 -1032 -10 -1077 -10 -27 -22 -53 -25 -57 -4 -5 -17 18 -28 50 l-19 59 25
1027 c20 759 29 1027 38 1027 9 0 13 -258 19 -1029z m-605 972 c0 -4 50 -265
111 -581 61 -316 108 -576 105 -580 -9 -8 -11 -4 -50 93 -34 82 -43 133 -111
569 -41 264 -75 486 -75 493 0 7 5 13 10 13 6 0 10 -3 10 -7z m1190 -8 c0 -8
-32 -223 -70 -478 -66 -433 -73 -469 -112 -569 -23 -60 -45 -108 -51 -108 -5
0 -7 10 -5 23 2 12 53 275 113 585 60 309 112 562 117 562 4 0 8 -7 8 -15z
m-1680 -399 c50 -130 90 -240 90 -246 0 -5 -8 -10 -18 -10 -15 0 -34 47 -104
254 -48 140 -84 257 -80 260 9 10 15 -5 112 -258z m2183 -1 c-71 -215 -88
-255 -104 -255 -10 0 -19 4 -19 9 0 5 34 98 76 207 42 110 85 223 96 252 11
29 23 50 28 47 5 -3 -30 -120 -77 -260z m-2684 -235 c123 -204 142 -242 131
-255 -7 -9 -17 -12 -21 -8 -12 14 -269 484 -269 494 0 27 28 -13 159 -231z
m3169 -40 c-79 -143 -146 -260 -150 -260 -4 0 -10 9 -13 21 -5 15 23 70 111
217 159 265 187 309 192 294 2 -6 -61 -129 -140 -272z m-3525 -390 c266 -306
277 -320 267 -346 -11 -27 -11 -27 -29 -8 -15 15 -498 614 -534 662 -6 8 -5
12 4 11 8 0 139 -144 292 -319z m4161 308 c-8 -13 -549 -686 -565 -702 -11
-12 -16 -7 -24 25 -5 22 28 63 285 357 160 183 295 332 301 332 5 0 7 -6 3
-12z m-3134 -78 c113 -21 223 -95 275 -184 24 -41 495 -1278 498 -1306 2 -23
-427 -1130 -435 -1122 -3 4 -95 242 -204 530 -108 287 -200 522 -203 522 -4 0
-200 -510 -435 -1132 -384 -1015 -429 -1140 -433 -1205 -5 -60 -2 -79 16 -117
74 -151 325 -234 550 -181 125 30 282 128 369 233 97 116 150 215 232 437 248
670 1247 3300 1267 3334 80 138 255 220 408 192 122 -23 245 -108 293 -204 12
-24 129 -329 261 -678 131 -349 404 -1073 606 -1609 202 -536 435 -1155 519
-1375 l151 -400 0 -105 c0 -94 -3 -111 -27 -160 -15 -31 -44 -75 -64 -98 -152
-178 -426 -189 -589 -24 -26 26 -58 68 -71 94 -13 26 -154 392 -313 815 -159
422 -409 1089 -557 1481 -152 406 -271 707 -275 700 -4 -7 -222 -578 -484
-1268 -262 -690 -494 -1289 -517 -1330 -228 -417 -587 -708 -1005 -814 -145
-37 -268 -49 -423 -43 -281 12 -538 104 -750 268 -183 141 -306 323 -377 554
-25 85 -27 102 -27 280 0 173 2 198 26 280 25 90 1250 3340 1291 3425 45 94
169 188 277 209 63 12 90 12 150 1z m-1330 -659 c345 -280 405 -332 402 -352
-1 -13 -6 -27 -10 -31 -9 -9 -812 687 -812 703 0 5 3 9 8 8 4 0 189 -148 412
-328z m4890 319 c0 -9 -812 -722 -828 -728 -5 -1 -14 10 -21 25 -12 26 -11 30
16 50 15 12 206 166 423 342 217 175 398 320 403 320 4 1 7 -3 7 -9z m-5022
-827 c215 -119 392 -222 392 -228 0 -6 -6 -20 -14 -30 -13 -18 -19 -15 -122
47 -707 426 -893 541 -889 548 3 5 58 -21 123 -56 64 -36 294 -162 510 -281z
m5357 321 c-11 -8 -245 -150 -519 -316 -471 -284 -500 -300 -513 -282 -7 10
-12 25 -11 32 3 15 1024 582 1048 582 11 -1 10 -4 -5 -16z m-5665 -719 c305
-104 557 -190 559 -191 3 -3 -19 -64 -23 -64 -28 4 -1112 432 -1114 440 -3 8
1 11 9 8 8 -3 264 -90 569 -193z m5934 187 c3 -5 -254 -109 -572 -231 -535
-206 -578 -220 -590 -204 -7 10 -11 24 -10 32 2 10 198 82 578 212 316 109
578 198 582 198 4 1 9 -3 12 -7z m-6077 -667 c306 -47 559 -87 561 -89 3 -4
-14 -44 -24 -55 -6 -7 -1134 213 -1134 222 0 12 26 9 597 -78z m6233 78 c0 -9
-1169 -237 -1176 -230 -3 2 -6 17 -7 33 -2 22 3 30 18 32 11 2 263 40 560 86
543 84 605 92 605 79z m-5827 -569 c3 -3 1 -17 -6 -31 l-11 -25 -481 6 c-485
7 -555 10 -555 27 0 5 86 10 198 10 192 2 756 13 818 17 17 1 33 -1 37 -4z
m5425 -10 c413 -6 516 -13 415 -28 -21 -3 -262 -8 -537 -12 -531 -7 -515 -8
-516 40 0 17 7 18 93 12 50 -3 296 -8 545 -12z m-5603 -471 c-4 -16 -7 -29 -8
-29 -1 -1 -183 -30 -405 -64 -358 -55 -428 -63 -411 -46 3 3 189 41 414 84
226 44 412 80 414 81 2 1 0 -11 -4 -26z m5581 -54 c230 -44 421 -82 423 -85
17 -16 -55 -8 -429 49 -283 44 -426 70 -431 79 -13 20 -11 38 5 38 7 0 202
-36 432 -81z m-3 -563 c122 -47 235 -90 250 -95 16 -6 26 -15 22 -21 -6 -9
-467 143 -492 163 -13 9 -18 37 -8 37 3 0 106 -38 228 -84z"/>
<path d="M9973 5015 c-18 -13 -52 -110 -42 -119 8 -6 262 -67 265 -63 2 2 7
30 10 63 7 77 -3 90 -91 115 -84 23 -114 24 -142 4z"/>
<path d="M2299 3639 c-112 -72 -212 -140 -221 -152 -23 -29 -22 -69 2 -100 27
-35 52 -41 93 -24 51 22 409 255 429 280 41 52 5 127 -61 127 -31 0 -73 -22
-242 -131z"/>
<path d="M5158 1811 c-15 -80 -25 -147 -23 -149 13 -13 98 -20 119 -10 36 16
66 114 66 213 0 52 -20 70 -91 83 l-45 9 -26 -146z"/>
</g>
</svg>
